<svg width="14" height="18" viewBox="0 0 14 18" fill="none" xmlns="http://www.w3.org/2000/svg">
<path d="M13 5.17336V16.8889H1V1H8.03552L13 5.17336Z" fill="white" stroke="#797979" stroke-width="2"/>
<path d="M11.5358 6.34087H7.33612C7.33042 6.34087 7.32579 6.33625 7.32579 6.33054V2.7308C7.32579 2.72702 7.3263 2.72547 7.32632 2.72543C7.32633 2.72539 7.32633 2.72537 7.32633 2.72537C7.32634 2.72536 7.32632 2.72539 7.32633 2.72539C7.32649 2.72514 7.32806 2.72314 7.33181 2.72142C7.33555 2.71969 7.33809 2.71981 7.33839 2.71984C7.33839 2.71984 7.33831 2.71981 7.33843 2.71986L7.33843 2.71986C7.33851 2.7199 7.34002 2.72054 7.34284 2.72296L11.5425 6.3227C11.5432 6.32329 11.5438 6.32383 11.5443 6.32431C11.5452 6.32518 11.5459 6.32587 11.5462 6.32632L11.5468 6.32706C11.5469 6.32804 11.5468 6.33054 11.5455 6.33413C11.5442 6.33771 11.5426 6.33963 11.5419 6.34034L11.541 6.34053C11.5401 6.34068 11.5384 6.34087 11.5358 6.34087ZM11.5468 6.32663L11.5468 6.32662L11.5468 6.32663Z" fill="#525252" stroke="white" stroke-width="0.651585"/>
<rect x="5" y="10" width="4" height="1" fill="#525252"/>
<rect x="7.5" y="8.5" width="4" height="1" transform="rotate(90 7.5 8.5)" fill="#525252"/>
</svg>
