<svg width="26" height="24" viewBox="0 0 26 24" fill="none" xmlns="http://www.w3.org/2000/svg">
<path d="M8.01427 7.0597C7.5 10 9.91907 12.4726 10.8867 13.403C8.80575 13.9032 3.98555 15.6358 3.03891 18.6009C3.01144 18.6869 2.99928 18.7777 3.00179 18.868C3.02681 19.7693 3.32521 20 4.58333 20H9.33333H20.6806C21.9425 20 21.9975 19.7679 21.9999 18.8597C22.0001 18.7748 21.9897 18.6892 21.9658 18.6077C21.0388 15.4415 16.5412 13.8205 14.3702 13.403C15.6017 12.4726 17.977 10.1769 17.5139 7.0597C17.2079 5 15.7261 3 12.7639 3C10 3 8.37886 4.97515 8.01427 7.0597Z" fill="white" stroke="white"/>
</svg>
