<svg width="26" height="24" viewBox="0 0 26 24" fill="none" xmlns="http://www.w3.org/2000/svg">
<path d="M13.6456 19.7718C14.8998 18.9504 16.4893 18.2636 18.0686 17.7658C19.7173 17.2461 21.3823 16.9238 22.6774 16.8765V3.9708C20.5823 4.00939 18.6417 4.42008 17.0625 4.9966C15.4624 5.58077 14.2651 6.32336 13.6456 6.99365V19.7718Z" fill="white" stroke="white" stroke-width="0.645128"/>
<path d="M12.3892 5.72477L12.5526 6.05159L12.8566 5.8489C13.4888 5.42745 14.57 4.79128 15.7455 4.2618C16.9097 3.73736 18.1248 3.33694 19.0778 3.32294L20.6205 3.83717L13.1164 20.0959H12.877L4.74585 3.83353L6.24337 3.33436C7.20289 3.55092 8.62446 3.92538 9.87665 4.36854C10.5227 4.5972 11.1143 4.84086 11.5714 5.08648C11.8 5.20928 11.9879 5.32885 12.13 5.44267C12.2753 5.55908 12.3542 5.65488 12.3892 5.72477Z" fill="white" stroke="white" stroke-width="0.645128"/>
<path d="M12.3544 19.7718C11.1002 18.9504 9.51071 18.2636 7.93142 17.7658C6.28273 17.2461 4.61769 16.9238 3.32256 16.8765V3.9708C5.41766 4.00939 7.3583 4.42008 8.93746 4.9966C10.5376 5.58077 11.7349 6.32336 12.3544 6.99365V19.7718Z" fill="#C9C9F5" stroke="white" stroke-width="0.645128"/>
</svg>
