<svg width="26" height="24" viewBox="0 0 26 24" fill="none" xmlns="http://www.w3.org/2000/svg">
<path d="M20.0607 21.9071H6.12708C5.9339 21.9071 5.7773 21.7505 5.7773 21.5573V3.12708C5.7773 2.9339 5.9339 2.7773 6.12708 2.7773H14.3019C14.3842 2.7773 14.4639 2.80635 14.527 2.85933L20.2858 7.70047C20.3649 7.76693 20.4105 7.86493 20.4105 7.96822V21.5573C20.4105 21.7505 20.2539 21.9071 20.0607 21.9071Z" fill="white" stroke="white" stroke-width="1.55459"/>
<path d="M14.3808 8.01923H19.2368C19.2386 8.01923 19.2401 8.01915 19.2411 8.01904C19.2418 8.01898 19.2424 8.0189 19.2428 8.01884L19.2438 8.01861C19.2446 8.0178 19.2465 8.01557 19.248 8.01143C19.2496 8.00729 19.2496 8.00439 19.2495 8.00326L19.2489 8.0024C19.2482 8.00159 19.2469 8.00016 19.2446 7.99822L14.3886 3.83594C14.3853 3.8331 14.3835 3.83238 14.3835 3.83236C14.3834 3.8323 14.3835 3.83234 14.3835 3.83233C14.3831 3.83229 14.3802 3.83216 14.3758 3.83416L14.3808 8.01923ZM14.3808 8.01923C14.3742 8.01923 14.3689 8.01388 14.3689 8.00729V3.84501M14.3808 8.01923L14.3689 3.84501M14.3689 3.84501C14.3689 3.84071 14.3695 3.8389 14.3695 3.8388M14.3689 3.84501L14.3695 3.8388M14.3695 3.8388L14.3695 3.8388M14.3695 3.8388L14.3695 3.8388M14.3695 3.8388C14.3695 3.83877 14.3695 3.83875 14.3695 3.83874L14.3695 3.8388Z" fill="#343B84" stroke="#343B84" stroke-width="0.75341"/>
<path d="M8.5 10.5H18" stroke="#363E86"/>
<path d="M8.5 13H18" stroke="#363E86"/>
<path d="M8.5 15.5H18" stroke="#363E86"/>
<path d="M8.5 18H18" stroke="#363E86"/>
</svg>
