<svg width="16" height="15" viewBox="0 0 16 15" fill="none" xmlns="http://www.w3.org/2000/svg">
<path fill-rule="evenodd" clip-rule="evenodd" d="M1.04767 0.146428C0.881986 0.147001 0.748137 0.281778 0.748709 0.447463L0.76712 5.77562C0.76805 6.0445 1.0973 6.17409 1.28464 5.98122L3.08981 4.09732L4.77027 5.72962C5.16643 6.11443 5.79953 6.10523 6.18434 5.70907C6.56914 5.31291 6.55994 4.67981 6.16378 4.295L4.47356 2.65322L6.40628 0.63622C6.58941 0.445104 6.45332 0.127749 6.18863 0.128664L1.04767 0.146428ZM0.970747 14.5949C0.805063 14.5957 0.670067 14.4621 0.669225 14.2964L0.643071 9.15549C0.641724 8.8908 0.958856 8.7542 1.15027 8.93702L3.17031 10.8663L4.80932 9.17344C5.19347 8.77665 5.82656 8.76641 6.22334 9.15057C6.62013 9.53473 6.63037 10.1678 6.24621 10.5646L4.61666 12.2477L6.50362 14.0499C6.69679 14.237 6.56774 14.5664 6.29887 14.5678L0.970747 14.5949ZM15.6126 14.3719C15.6133 14.5375 15.4796 14.6725 15.3139 14.6732L10.173 14.6966C9.90832 14.6978 9.77189 14.3806 9.95481 14.1893L11.8853 12.1702L10.1933 10.5303C9.79671 10.1459 9.78681 9.5128 10.1712 9.11622C10.5556 8.71964 11.1886 8.70974 11.5852 9.09411L13.2675 10.7246L15.0706 8.83869C15.2577 8.64561 15.5871 8.77484 15.5883 9.04371L15.6126 14.3719ZM15.3827 0.220459C15.5484 0.218914 15.684 0.35197 15.6855 0.517648L15.7335 5.65842C15.7359 5.9231 15.4194 6.06104 15.2272 5.87904L13.199 3.95831L11.5672 5.65812C11.1847 6.05654 10.5517 6.06946 10.1533 5.68698C9.75486 5.30451 9.74194 4.67147 10.1244 4.27306L11.7468 2.58306L9.85223 0.788858C9.65827 0.602652 9.78592 0.272649 10.0548 0.270142L15.3827 0.220459Z" fill="#373737"/>
</svg>
