<svg width="41" height="53" viewBox="0 0 41 53" fill="none" xmlns="http://www.w3.org/2000/svg">
<path d="M38.1454 50.4202H2.85464C2.36536 50.4202 1.96871 50.0235 1.96871 49.5343V2.85463C1.96871 2.36536 2.36535 1.96871 2.85464 1.96871H23.5595C23.7681 1.96871 23.97 2.04229 24.1296 2.1765L38.7154 14.438C38.9157 14.6063 39.0313 14.8545 39.0313 15.1161V49.5342C39.0313 50.0235 38.6346 50.4202 38.1454 50.4202Z" fill="white" stroke="#797979" stroke-width="3.93743"/>
<path d="M34.7913 17.778H22.4922C22.4862 17.778 22.483 17.777 22.4807 17.776C22.4778 17.7748 22.4742 17.7726 22.4708 17.7691C22.4673 17.7657 22.4651 17.7621 22.4639 17.7592C22.4629 17.7569 22.4619 17.7537 22.4619 17.7477V7.20564C22.4619 7.19458 22.4634 7.19002 22.4635 7.18991C22.4636 7.18956 22.4635 7.1898 22.4635 7.18979C22.464 7.18907 22.4685 7.18321 22.4795 7.17816C22.4905 7.17311 22.4979 7.17344 22.4988 7.17354C22.4988 7.17354 22.4986 7.17345 22.4989 7.1736L22.4989 7.17361C22.4992 7.17371 22.5036 7.17559 22.5119 7.18267L34.811 17.7248C34.8167 17.7297 34.8201 17.7333 34.8218 17.7354C34.8225 17.7362 34.8231 17.7369 34.8234 17.7374C34.8236 17.7402 34.8236 17.7476 34.8197 17.7582C34.8157 17.7689 34.8109 17.7745 34.809 17.7765C34.8084 17.7766 34.8075 17.7768 34.8064 17.777C34.8037 17.7774 34.7988 17.778 34.7913 17.778Z" fill="#B3B3C1" stroke="white" stroke-width="1.90821"/>
<path d="M7.59766 30.3933H31.659" stroke="#7A7676" stroke-width="2.53277"/>
<path d="M7.59766 36.7251H31.659" stroke="#7A7676" stroke-width="2.53277"/>
<path d="M7.59766 43.0571H31.659" stroke="#7A7676" stroke-width="2.53277"/>
<path d="M7.59766 24.0613H31.659" stroke="#777171" stroke-width="2.53277"/>
</svg>
