<svg width="22" height="20" viewBox="0 0 22 20" fill="none" xmlns="http://www.w3.org/2000/svg">
<path d="M12.9884 8.43385L10.3515 5.79691C10.2828 5.7282 10.2888 5.61496 10.3685 5.55933C11.1207 5.034 12.6719 4.44922 13.8908 5.66812C15.1867 6.96404 16.3217 8.09899 16.7359 8.5132C16.7413 8.51865 16.7459 8.52389 16.7504 8.53009C17.1443 9.06338 17.6044 10.4004 16.4489 11.6637C16.3882 11.7301 16.2845 11.7299 16.2209 11.6663L13.4832 8.92861M12.9884 8.43385L9.42445 12.1714C9.41326 12.1831 9.40387 12.1965 9.39662 12.211L9.21872 12.5668C9.14866 12.7069 9.29731 12.8556 9.43744 12.7855L9.79146 12.6085C9.80714 12.6007 9.82144 12.5904 9.83383 12.578L13.4832 8.92861M12.9884 8.43385L13.4832 8.92861" stroke="black" stroke-width="0.815127"/>
<path d="M16.7436 3.22266L13.8906 5.66804L16.336 8.11342L18.7814 5.26047L16.7436 3.22266Z" fill="black" stroke="black" stroke-width="0.815127"/>
<path d="M16.6388 2.12797C16.4298 2.46982 16.5024 2.98366 16.7392 3.22269C17.2831 3.76611 18.4524 4.93446 18.7785 5.26051C19.0723 5.5543 19.4984 5.64955 19.878 5.36735C19.9503 5.31363 19.9495 5.20889 19.8858 5.14523L16.8545 2.11522C16.7908 2.05158 16.6858 2.05117 16.6388 2.12797Z" stroke="black" stroke-width="0.815127"/>
<g filter="url(#filter0_f)">
<ellipse cx="9.5" cy="15" rx="5.5" ry="1" fill="#C4C4C4"/>
</g>
<defs>
<filter id="filter0_f" x="2" y="12" width="15" height="6" filterUnits="userSpaceOnUse" color-interpolation-filters="sRGB">
<feFlood flood-opacity="0" result="BackgroundImageFix"/>
<feBlend mode="normal" in="SourceGraphic" in2="BackgroundImageFix" result="shape"/>
<feGaussianBlur stdDeviation="1" result="effect1_foregroundBlur"/>
</filter>
</defs>
</svg>
