<svg width="26" height="24" viewBox="0 0 26 24" fill="none" xmlns="http://www.w3.org/2000/svg">
<path d="M20.0607 21.4071H6.12708C5.9339 21.4071 5.7773 21.2505 5.7773 21.0573V2.62708C5.7773 2.4339 5.9339 2.2773 6.12708 2.2773H14.3019C14.3842 2.2773 14.4639 2.30635 14.527 2.35933L20.2858 7.20047C20.3649 7.26693 20.4105 7.36493 20.4105 7.46822V21.0573C20.4105 21.2505 20.2539 21.4071 20.0607 21.4071Z" fill="white" stroke="white" stroke-width="1.55459"/>
<path d="M20.0607 21.4071H6.12708C5.9339 21.4071 5.7773 21.2505 5.7773 21.0573V2.62708C5.7773 2.4339 5.9339 2.2773 6.12708 2.2773H14.3019C14.3842 2.2773 14.4639 2.30635 14.527 2.35933L20.2858 7.20047C20.3649 7.26693 20.4105 7.36493 20.4105 7.46822V21.0573C20.4105 21.2505 20.2539 21.4071 20.0607 21.4071Z" fill="white" stroke="white" stroke-width="1.55459"/>
<path d="M14.3808 7.41865H19.2368C19.2386 7.41865 19.2401 7.41856 19.2411 7.41846C19.2418 7.41839 19.2424 7.41832 19.2428 7.41825L19.2438 7.41802C19.2446 7.41721 19.2465 7.41499 19.248 7.41085C19.2496 7.4067 19.2496 7.4038 19.2495 7.40267L19.2489 7.40182C19.2482 7.40101 19.2469 7.39957 19.2446 7.39763L14.3886 3.23535C14.3853 3.23251 14.3835 3.23179 14.3835 3.23177C14.3834 3.23171 14.3835 3.23175 14.3835 3.23175C14.3831 3.23171 14.3802 3.23158 14.3758 3.23357L14.3808 7.41865ZM14.3808 7.41865C14.3742 7.41865 14.3689 7.4133 14.3689 7.4067V3.24442M14.3808 7.41865L14.3689 3.24442M14.3689 3.24442C14.3689 3.24013 14.3695 3.23832 14.3695 3.23822M14.3689 3.24442L14.3695 3.23822M14.3695 3.23822L14.3695 3.23821M14.3695 3.23822L14.3695 3.23821M14.3695 3.23821C14.3695 3.23818 14.3695 3.23817 14.3695 3.23815L14.3695 3.23821Z" fill="#343B84" stroke="#343B84" stroke-width="0.75341"/>
<path d="M8.80665 19.4384L9.03799 16.9081L15.8274 9.76051C16.2959 9.26734 17.0754 9.2473 17.5686 9.71576L18.0664 10.1886C18.5596 10.6571 18.5796 11.4366 18.1112 11.9298L11.3217 19.0774L8.80665 19.4384Z" fill="#4F4F90" stroke="white" stroke-width="0.449661" stroke-linecap="round"/>
</svg>
