<svg width="26" height="24" viewBox="0 0 26 24" fill="none" xmlns="http://www.w3.org/2000/svg">
<path d="M19.4178 9.66022L19.6046 10.6493L20.6085 10.7218C22.5387 10.8612 24.1298 12.5343 24.1298 14.6875C24.1298 16.9508 22.3826 18.6923 20.3464 18.6923H7.10938C4.51315 18.6923 2.30769 16.4727 2.30769 13.625C2.30769 10.9694 4.22711 8.85454 6.59171 8.59222L7.29952 8.5137L7.61757 7.8765C8.68796 5.73199 10.8128 4.30769 13.2188 4.30769C16.2461 4.30769 18.8324 6.56144 19.4178 9.66022Z" fill="white" stroke="white" stroke-width="2.61538"/>
<path d="M11.5 12H14.5V16H11.5V12Z" fill="#363E86"/>
<path d="M13 9L16.4641 12.75H9.5359L13 9Z" fill="#363E86"/>
</svg>
