<svg width="20" height="20" viewBox="0 0 20 20" fill="none" xmlns="http://www.w3.org/2000/svg">
<path d="M20 9.99996C20 15.5228 15.5228 20 10 20C4.47715 20 0 15.5228 0 9.99996C0 4.47711 4.47715 -4.12948e-05 10 -4.12948e-05C15.5228 -4.12948e-05 20 4.47711 20 9.99996Z" fill="#363E86"/>
<path d="M11.7815 7.13677C11.7815 8.1979 10.9213 9.05812 9.86016 9.05812C8.79903 9.05812 7.93881 8.1979 7.93881 7.13677C7.93881 6.07564 8.79903 5.21542 9.86016 5.21542C10.9213 5.21542 11.7815 6.07564 11.7815 7.13677Z" fill="white" stroke="white" stroke-width="0.815117"/>
<path d="M14.5148 13.5412C14.5148 12.4602 14.0241 11.4236 13.1506 10.6593C12.2771 9.89497 11.0924 9.46558 9.85703 9.46558C8.6217 9.46558 7.43697 9.89497 6.56346 10.6593C5.68995 11.4236 5.19922 12.4602 5.19922 13.5412L9.85703 13.5412H14.5148Z" fill="white"/>
</svg>
